<svg width="30" height="30" viewBox="0 0 30 30" fill="none" xmlns="http://www.w3.org/2000/svg">
<g clip-path="url(#clip0_942_116)">
<path d="M26.7188 0H3.28125C1.46907 0 0 1.46907 0 3.28125V26.7188C0 28.5309 1.46907 30 3.28125 30H26.7188C28.5309 30 30 28.5309 30 26.7188V3.28125C30 1.46907 28.5309 0 26.7188 0Z" fill="#092E20"/>
<path d="M21.8411 11.0388V18.7997C21.8411 21.4738 21.6454 22.7564 21.0585 23.8652C20.5149 24.9306 19.7974 25.6044 18.3192 26.3436L15.2103 24.8653C16.6887 24.1696 17.406 23.5611 17.8625 22.6259C18.3409 21.6695 18.4932 20.5607 18.4932 17.6476V11.0388H21.8411ZM16.5151 5.86859V21.3653C14.7976 21.6913 13.5366 21.8218 12.1671 21.8218C8.07993 21.8218 5.94945 19.974 5.94945 16.4303C5.94945 13.0171 8.2105 10.7998 11.7105 10.7998C12.2539 10.7998 12.667 10.8431 13.1671 10.9736V5.86859H16.5151ZM12.0367 13.4953C10.341 13.4953 9.36263 14.5389 9.36263 16.3649C9.36263 18.1477 10.2975 19.1259 12.015 19.1259C12.3844 19.1259 12.6889 19.1042 13.1671 19.0391V13.6691C12.7758 13.5388 12.4497 13.4953 12.0367 13.4953ZM21.8411 5.8864V9.32132H18.4932V5.8864H21.8411Z" fill="#FFFFFD"/>
</g>
<defs>
<clipPath id="clip0_942_116">
<rect width="30" height="30" fill="white"/>
</clipPath>
</defs>
</svg>
