<svg width="28" height="28" viewBox="0 0 28 28" fill="none" xmlns="http://www.w3.org/2000/svg">
<path d="M13.8922 0.968739C7.23594 0.968739 7.65688 3.84686 7.65688 3.84686V6.83749H13.9869V7.77499H5.13594C5.13594 7.77499 0.875 7.24999 0.875 14.0047C0.875 20.7594 4.63719 20.4847 4.63719 20.4847H6.80937V17.3337C6.80937 17.3337 6.6875 13.5716 10.4656 13.5716H16.805C16.805 13.5716 20.3412 13.6278 20.3412 10.1478V4.43749C20.3412 4.43749 20.8775 0.957489 13.9269 0.957489L13.8922 0.968739ZM10.3934 2.97218C10.6185 2.9665 10.8401 3.02768 11.0304 3.14799C11.2207 3.2683 11.371 3.44233 11.4623 3.64807C11.5537 3.85381 11.582 4.08201 11.5436 4.30383C11.5053 4.52565 11.402 4.73112 11.2469 4.89424C11.0918 5.05737 10.8917 5.17083 10.6721 5.22027C10.4525 5.26972 10.2232 5.25292 10.0131 5.17202C9.80304 5.09112 9.62168 4.94974 9.49197 4.76576C9.36225 4.58178 9.29001 4.36347 9.28438 4.13843V4.11968C9.28438 3.97022 9.31381 3.82222 9.37101 3.68414C9.42821 3.54605 9.51204 3.42059 9.61772 3.3149C9.72341 3.20922 9.84888 3.12538 9.98696 3.06819C10.125 3.01099 10.273 2.98155 10.4225 2.98155L10.3934 2.97218Z" fill="url(#paint0_linear_1005_2)"/>
<path d="M14.0797 27.0406C20.7359 27.0406 20.315 24.1531 20.315 24.1531V21.1719H13.9859V20.2344H22.8641C22.8641 20.2344 27.125 20.7106 27.125 13.9953C27.125 7.28001 23.3628 7.51532 23.3628 7.51532H21.1625V10.625C21.1625 10.625 21.2844 14.3872 17.5062 14.3872H11.1641C11.1641 14.3872 7.625 14.3338 7.625 17.8138V23.5625C7.625 23.5625 7.08875 27.0425 14.0394 27.0425H14.0769L14.0797 27.0406ZM17.5784 25.0278C17.3534 25.0335 17.1317 24.9723 16.9415 24.852C16.7512 24.7317 16.6009 24.5577 16.5095 24.3519C16.4182 24.1462 16.3899 23.918 16.4282 23.6962C16.4666 23.4743 16.5699 23.2689 16.725 23.1058C16.8801 22.9426 17.0801 22.8292 17.2997 22.7797C17.5194 22.7303 17.7487 22.7471 17.9588 22.828C18.1688 22.9089 18.3502 23.0503 18.4799 23.2342C18.6096 23.4182 18.6819 23.6365 18.6875 23.8616V23.8897C18.6875 24.1915 18.5676 24.481 18.3542 24.6945C18.1407 24.9079 17.8512 25.0278 17.5494 25.0278H17.5784Z" fill="url(#paint1_linear_1005_2)"/>
<defs>
<linearGradient id="paint0_linear_1005_2" x1="3.46921" y1="3.52146" x2="15.9255" y2="15.9495" gradientUnits="userSpaceOnUse">
<stop stop-color="#387EB8"/>
<stop offset="1" stop-color="#366994"/>
</linearGradient>
<linearGradient id="paint1_linear_1005_2" x1="10.8383" y1="11.6174" x2="25.0697" y2="24.0417" gradientUnits="userSpaceOnUse">
<stop stop-color="#FFE052"/>
<stop offset="1" stop-color="#FFC331"/>
</linearGradient>
</defs>
</svg>
