<svg width="30" height="28" viewBox="0 0 30 28" fill="none" xmlns="http://www.w3.org/2000/svg">
<g clip-path="url(#clip0_942_94)">
<path d="M15 16.6739C16.4768 16.6739 17.6739 15.4768 17.6739 14C17.6739 12.5233 16.4768 11.3261 15 11.3261C13.5232 11.3261 12.3261 12.5233 12.3261 14C12.3261 15.4768 13.5232 16.6739 15 16.6739Z" fill="#61DAFB"/>
<path d="M15 19.4783C22.9241 19.4783 29.3478 17.0256 29.3478 14C29.3478 10.9745 22.9241 8.52176 15 8.52176C7.07592 8.52176 0.652176 10.9745 0.652176 14C0.652176 17.0256 7.07592 19.4783 15 19.4783Z" stroke="#61DAFB"/>
<path d="M10.2557 16.7391C14.2177 23.6016 19.5537 27.9384 22.1739 26.4256C24.7941 24.9128 23.7064 18.1233 19.7443 11.2609C15.7823 4.39842 10.4463 0.0616468 7.82609 1.57443C5.20588 3.08721 6.29365 9.87668 10.2557 16.7391Z" stroke="#61DAFB"/>
<path d="M10.2557 11.2609C6.29365 18.1234 5.20588 24.9128 7.82609 26.4256C10.4463 27.9384 15.7823 23.6016 19.7443 16.7392C23.7064 9.87669 24.7941 3.08722 22.1739 1.57444C19.5537 0.0616579 14.2177 4.39843 10.2557 11.2609Z" stroke="#61DAFB"/>
</g>
<defs>
<clipPath id="clip0_942_94">
<rect width="30" height="26.6915" fill="white" transform="translate(0 0.654266)"/>
</clipPath>
</defs>
</svg>
